<?xml version="1.0" encoding="UTF-8"?>
<svg id="Ebene_1" xmlns="http://www.w3.org/2000/svg" version="1.1" viewBox="0 0 71 70">
  <!-- Generator: Adobe Illustrator 30.0.0, SVG Export Plug-In . SVG Version: 2.1.1 Build 123)  -->
  <defs>
    <style>
      .st0 {
        fill: #fff;
      }

      .st1 {
        fill: #f6e81d;
      }
    </style>
  </defs>
  <path class="st0" d="M54.86,11h-20.35c-13.54,0-24.51,10.97-24.51,24.51v20.67c0,3.77,3.05,6.82,6.82,6.82h37.53c4.22,0,7.65-3.42,7.65-7.65V18.14c0-3.94-3.2-7.14-7.14-7.14ZM37.74,60.62c-14.16.89-25.83-10.78-24.94-24.94.74-11.68,10.21-21.15,21.89-21.89,14.16-.89,25.83,10.78,24.94,24.94-.74,11.68-10.21,21.15-21.89,21.89Z"/>
  <path class="st1" d="M37.57,20.44c-10.36-.82-18.94,7.76-18.12,18.12.64,8.15,7.24,14.75,15.39,15.39,10.36.82,18.94-7.76,18.12-18.12-.64-8.15-7.24-14.75-15.39-15.39Z"/>
</svg>