<svg width="141" height="32" viewBox="0 0 141 32" fill="none" xmlns="http://www.w3.org/2000/svg">
<path fill-rule="evenodd" clip-rule="evenodd" d="M26.415 25.4391C27.9958 24.5286 28.9696 22.846 28.9696 21.0249V10.9763C28.9696 9.15531 27.9958 7.47266 26.415 6.56217L17.6922 1.53785C16.1113 0.627356 14.1639 0.627358 12.5831 1.53785L3.86019 6.56217C2.27944 7.47266 1.30566 9.15531 1.30566 10.9763V21.0249C1.30566 22.846 2.27945 24.5286 3.86019 25.4391L12.5831 30.4634C14.1639 31.3738 16.1115 31.3738 17.6922 30.4634L26.415 25.4391ZM26.415 21.0249C26.415 21.9354 25.9282 22.7767 25.1378 23.232L20.5724 25.8616C20.1701 26.0933 19.9689 26.2092 19.8038 26.192C19.6598 26.1769 19.529 26.1016 19.4438 25.9846C19.3463 25.8507 19.3463 25.6189 19.3463 25.1554V19.8962C19.3463 18.9858 19.8331 18.1445 20.6235 17.6892L23.0679 16.2812C23.4036 16.0879 23.5714 15.9911 23.6935 15.8558C23.8013 15.7362 23.8828 15.5952 23.9324 15.442C23.9886 15.2689 23.9883 15.0755 23.9875 14.6889L23.9874 14.5727C23.9863 13.9943 23.9858 13.7051 23.8637 13.5379C23.7573 13.3921 23.5939 13.2982 23.414 13.2794C23.2077 13.2579 22.9567 13.4025 22.4546 13.6917L19.3463 15.4821C17.7656 16.3925 16.7917 18.0752 16.7917 19.8962V27.6051C16.7917 27.8739 16.648 28.1219 16.4149 28.2563C15.6245 28.7116 14.6507 28.7116 13.8604 28.2563L5.13746 23.232C4.34709 22.7767 3.86019 21.9354 3.86019 21.0249V15.8454C3.86019 15.3818 3.86019 15.1501 3.95776 15.0161C4.04287 14.8992 4.17368 14.8239 4.31768 14.8088C4.48278 14.7915 4.68396 14.9073 5.08635 15.1391L9.55724 17.7142C10.3476 18.1693 10.8345 19.0108 10.8345 19.9212V22.603C10.8345 22.9897 10.8345 23.1831 10.8909 23.356C10.9409 23.5091 11.0226 23.65 11.1307 23.7695C11.2529 23.9045 11.4209 24.0009 11.7569 24.1937L11.8579 24.2515C12.3605 24.5398 12.6118 24.6841 12.8179 24.6622C12.9978 24.6431 13.161 24.5488 13.2673 24.4028C13.389 24.2355 13.389 23.9462 13.389 23.3678V19.9212C13.389 18.1002 12.4152 16.4175 10.8345 15.5071L4.30628 11.7471C4.03024 11.5881 3.86019 11.2943 3.86019 10.9763C3.86019 10.0658 4.34707 9.22447 5.13746 8.76923L13.8604 3.74492C14.6507 3.28967 15.6245 3.28967 16.4149 3.74492L20.9306 6.34595C21.3331 6.57773 21.5343 6.69361 21.6018 6.8449C21.6607 6.97686 21.6607 7.12757 21.6018 7.25953C21.5343 7.41082 21.3331 7.5267 20.9306 7.75848L16.3444 10.4002C15.5538 10.8554 14.5801 10.8554 13.7897 10.4002L11.2201 8.9201C10.9643 8.77277 10.8364 8.6991 10.7003 8.66952C10.5799 8.64335 10.4553 8.6423 10.3344 8.66646C10.1979 8.69374 10.0687 8.76526 9.8105 8.90826L9.49191 9.08471C8.97543 9.37074 8.71721 9.51376 8.62983 9.70349C8.55366 9.86893 8.55206 10.059 8.62544 10.2257C8.7096 10.4168 8.96538 10.5642 9.47695 10.8588L12.5125 12.6073C14.0932 13.5178 16.0408 13.5178 17.6216 12.6073L24.2849 8.76923C24.5488 8.61723 24.8739 8.61723 25.1378 8.76923C25.9282 9.22447 26.415 10.0658 26.415 10.9763V21.0249Z" fill="white"/>
<path d="M48.4947 9.01147C48.8196 9.01147 49.0829 9.27182 49.0829 9.59299V11.2683C49.0829 11.588 48.8218 11.8477 48.4984 11.8498L44.5815 11.8744C43.0045 11.8744 42.6604 12.1295 42.6604 14.0571V22.603C42.6604 22.9242 42.3971 23.1846 42.0723 23.1846H39.8081C39.4832 23.1846 39.2198 22.9242 39.2198 22.603V12.7815C39.2198 10.2304 40.3667 9.01147 43.0332 9.01147H48.4947Z" fill="white"/>
<path d="M62.1372 20.1231C61.0476 22.4192 59.2701 23.4114 57.2629 23.4114C53.0482 23.4114 51.6719 20.1231 51.6719 15.8712V9.59299C51.6719 9.27182 51.9354 9.01147 52.2602 9.01147H54.5244C54.8493 9.01147 55.1126 9.27182 55.1126 9.59299V15.8712C55.1126 18.7342 56.3742 19.9815 58.5532 19.9815C59.9295 19.9815 62.5098 18.9893 62.5098 14.3122V9.59299C62.5098 9.27182 62.7733 9.01147 63.0981 9.01147H65.3623C65.6872 9.01147 65.9505 9.27182 65.9505 9.59299V22.603C65.9505 22.9242 65.6872 23.1846 65.3623 23.1846H63.0981C62.7733 23.1846 62.5098 22.9242 62.5098 22.603V20.2083C62.5098 19.6245 62.5926 18.8772 62.704 18.3137C62.7074 18.2966 62.6941 18.2806 62.6764 18.2806C62.6628 18.2806 62.6514 18.29 62.6487 18.3029C62.5341 18.8667 62.3635 19.5916 62.1372 20.1231Z" fill="white"/>
<path d="M72.3625 12.2419C73.5094 9.8325 75.7458 8.78369 77.6669 8.78369C81.4515 8.78369 82.8851 12.0718 82.8851 16.3237V22.602C82.8851 22.9232 82.6218 23.1836 82.297 23.1836H80.004C79.6792 23.1836 79.4159 22.9232 79.4159 22.602V16.3237C79.4159 13.7443 78.3263 12.2136 76.4052 12.2136C74.9144 12.2136 71.9611 13.2057 71.9611 17.8827V22.602C71.9611 22.9232 71.6978 23.1836 71.373 23.1836H69.1088C68.784 23.1836 68.5205 22.9232 68.5205 22.602V9.59197C68.5205 9.27081 68.784 9.01046 69.1088 9.01046H71.373C71.6978 9.01046 71.9611 9.27081 71.9611 9.59197V12.1569C71.9611 12.7128 71.8785 13.4596 71.7671 14.0229C71.7637 14.0401 71.7771 14.0561 71.7948 14.0561C71.8081 14.0561 71.8198 14.0468 71.8224 14.0338C71.9371 13.4707 72.1079 12.7735 72.3625 12.2419Z" fill="white"/>
<path d="M89.5829 11.0244C90.8732 9.66384 93.1669 8.8418 95.0593 8.8418C99.5607 8.87015 102.17 11.1945 102.17 16.0984C102.17 21.0023 99.5607 23.3551 95.0593 23.3551C93.1669 23.3551 90.8732 22.533 89.5829 21.1724C89.1289 20.7236 88.8154 19.9138 88.6144 19.3201C88.6105 19.3089 88.6001 19.3015 88.5881 19.3015C88.5695 19.3015 88.5561 19.3192 88.5616 19.3369C88.7576 19.982 88.9235 20.7589 88.9235 21.3992V25.3588C88.9235 25.6799 88.6601 25.9402 88.3352 25.9402H86.0701C85.7456 25.9402 85.4824 25.6805 85.4819 25.3597L85.4551 9.59431C85.4546 9.27279 85.7181 9.01188 86.0433 9.01188H88.3352C88.6601 9.01188 88.9235 9.27223 88.9235 9.59339V10.7977C88.9235 11.4369 88.7581 12.2668 88.5625 12.86C88.5567 12.8775 88.57 12.8953 88.5884 12.8953C88.6002 12.8953 88.6105 12.888 88.6142 12.8771C88.8152 12.2834 89.1289 11.4734 89.5829 11.0244ZM94.0556 20.6905C97.4677 20.6905 98.7292 18.9614 98.7292 16.0984C98.7292 13.1788 97.4389 11.7331 94.0556 11.6481C91.4179 11.6481 88.9235 13.3772 88.9235 16.0984C88.9235 18.8196 91.4179 20.6905 94.0556 20.6905Z" fill="white"/>
<path d="M120.836 16.0984C120.836 21.0023 116.965 23.3551 112.464 23.3551C107.991 23.3551 104.12 21.0023 104.12 16.0984C104.12 11.1945 107.991 8.8418 112.464 8.8418C116.965 8.8418 120.836 11.2229 120.836 16.0984ZM117.395 16.0984C117.395 13.2355 115.073 11.6197 112.464 11.6197C109.941 11.6197 107.561 13.2355 107.561 16.0984C107.561 19.0464 109.769 20.5487 112.464 20.5487C115.101 20.5487 117.395 18.9897 117.395 16.0984Z" fill="white"/>
<path d="M135.489 21.228C134.17 22.5319 131.876 23.354 129.984 23.354C125.482 23.354 122.873 21.0012 122.873 16.0973C122.873 11.1934 125.482 8.86904 129.984 8.84069C131.876 8.84069 134.198 9.71942 135.489 11.08C135.943 11.5289 136.228 12.3386 136.429 12.9323C136.432 12.9435 136.443 12.9509 136.455 12.9509C136.473 12.9509 136.487 12.9332 136.481 12.9156C136.285 12.2704 136.119 11.4935 136.119 10.8533V6.64208C136.119 6.32091 136.383 6.06055 136.708 6.06055H139.001C139.325 6.06055 139.589 6.32091 139.589 6.64208V22.6023C139.589 22.9235 139.325 23.1839 139.001 23.1839H136.708C136.383 23.1839 136.119 22.9235 136.119 22.6023V21.4548C136.119 20.8121 136.287 20.0042 136.484 19.4111C136.488 19.3964 136.482 19.3802 136.468 19.3732C136.45 19.3647 136.429 19.3732 136.423 19.3912C136.223 19.9836 135.939 20.7831 135.489 21.228ZM130.987 20.5476C133.625 20.5476 136.119 18.8185 136.119 16.0973C136.119 13.3761 133.625 11.5052 130.987 11.5052C127.575 11.5903 126.285 13.206 126.285 16.0973C126.285 18.9886 127.604 20.5476 130.987 20.5476Z" fill="white"/>
</svg>
