<?xml version="1.0" encoding="UTF-8"?>
<svg id="Ebene_1" xmlns="http://www.w3.org/2000/svg" version="1.1" viewBox="0 0 397.33 412.44">
  <!-- Generator: Adobe Illustrator 30.0.0, SVG Export Plug-In . SVG Version: 2.1.1 Build 123)  -->
  <defs>
    <style>
      .st0 {
        fill: #fff;
      }

      .st1 {
        fill: #fbbf26;
      }
    </style>
  </defs>
  <circle class="st0" cx="199.96" cy="200.99" r="166.32"/>
  <g>
    <path class="st1" d="M302.89,221.84c-4.58-.53-9.02-2.46-12.53-5.97-3.8-3.8-5.77-8.69-6.08-13.66H115.26c-.31,4.97-2.28,9.86-6.08,13.66-8.27,8.27-21.69,8.27-29.96,0-8.27-8.27-8.27-21.69,0-29.96,3.51-3.51,7.96-5.44,12.53-5.97v-92.43c-.92.87-1.85,1.72-2.75,2.62-61.17,61.18-61.17,160.36,0,221.53,58.69,58.69,152.35,61.04,213.88,7.11v-96.92Z"/>
    <path class="st1" d="M310.54,90.12c-58.69-58.69-152.35-61.04-213.89-7.11v96.92c4.58.53,9.02,2.46,12.53,5.97,3.22,3.22,5.15,7.23,5.86,11.41h169.44c.71-4.18,2.64-8.18,5.86-11.41,8.27-8.27,21.69-8.27,29.96,0,8.27,8.27,8.27,21.69,0,29.96-3.51,3.51-7.96,5.44-12.53,5.97v92.43c.92-.87,1.85-1.72,2.75-2.62,61.18-61.18,61.18-160.36,0-221.53Z"/>
  </g>
</svg>